<?xml version="1.0" encoding="UTF-8" standalone="no"?><svg xmlns="http://www.w3.org/2000/svg" xmlns:xlink="http://www.w3.org/1999/xlink" contentScriptType="application/ecmascript" contentStyleType="text/css" height="854px" preserveAspectRatio="none" style="width:1491px;height:854px;background:#777777;" version="1.1" viewBox="0 0 1491 854" width="1491px" zoomAndPan="magnify"><defs><filter height="300%" id="f1a4tvp7dj8t2s" width="300%" x="-1" y="-1"><feGaussianBlur result="blurOut" stdDeviation="2.0"/><feColorMatrix in="blurOut" result="blurOut2" type="matrix" values="0 0 0 0 0 0 0 0 0 0 0 0 0 0 0 0 0 0 .4 0"/><feOffset dx="4.0" dy="4.0" in="blurOut2" result="blurOut3"/><feBlend in="SourceGraphic" in2="blurOut3" mode="normal"/></filter></defs><g><!--MD5=[e49abcd5219966d7355eba47b44d26e8]
class STUDENT--><rect codeLine="5" fill="#2E2E2E" filter="url(#f1a4tvp7dj8t2s)" height="131.6328" id="STUDENT" style="stroke:#1B1B1B;stroke-width:1.5;" width="142" x="433.5" y="172.5"/><ellipse cx="474.5" cy="185.5" fill="#1A66C2" rx="8" ry="8" style="stroke:#1B1B1B;stroke-width:1.0;"/><path d="M471.5156,181.4844 L477.0938,181.4844 L477.0938,183.0469 L473.5781,183.0469 L473.5781,184.5313 L476.875,184.5313 L476.875,186.0938 L473.5781,186.0938 L473.5781,187.9375 L477.2031,187.9375 L477.2031,189.5 L471.5156,189.5 L471.5156,181.4844 Z " fill="#000000"/><text fill="#FFFFFF" font-family="Verdana" font-size="11" lengthAdjust="spacing" textLength="53" x="490.5" y="189.3081">STUDENT</text><line style="stroke:#1B1B1B;stroke-width:1.5;" x1="434.5" x2="574.5" y1="198.5" y2="198.5"/><text fill="#AAAAAA" font-family="sans-serif" font-size="11" lengthAdjust="spacing" textLength="27" x="439.5" y="212.7104">id:pk</text><text fill="#AAAAAA" font-family="sans-serif" font-size="11" lengthAdjust="spacing" textLength="127" x="439.5" y="225.5151">username :  CharField</text><text fill="#AAAAAA" font-family="sans-serif" font-size="11" lengthAdjust="spacing" textLength="130" x="439.5" y="238.3198">first_name :  CharField</text><text fill="#AAAAAA" font-family="sans-serif" font-size="11" lengthAdjust="spacing" textLength="128" x="439.5" y="251.1245">last_name :  CharField</text><text fill="#AAAAAA" font-family="sans-serif" font-size="11" lengthAdjust="spacing" textLength="104" x="439.5" y="263.9292">email :  EmailField</text><text fill="#AAAAAA" font-family="sans-serif" font-size="11" lengthAdjust="spacing" textLength="104" x="439.5" y="276.7339">phone :  CharField</text><text fill="#AAAAAA" font-family="sans-serif" font-size="11" lengthAdjust="spacing" textLength="125" x="439.5" y="289.5386">password :  CharField</text><line style="stroke:#1B1B1B;stroke-width:1.5;" x1="434.5" x2="574.5" y1="296.1328" y2="296.1328"/><!--MD5=[06b0f18b138b077c25a82a482b62a22b]
class ExtraInfo--><rect codeLine="16" fill="#2E2E2E" filter="url(#f1a4tvp7dj8t2s)" height="118.8281" id="ExtraInfo" style="stroke:#1B1B1B;stroke-width:1.5;" width="210" x="214.5" y="402.5"/><ellipse cx="291" cy="415.5" fill="#1A66C2" rx="8" ry="8" style="stroke:#1B1B1B;stroke-width:1.0;"/><path d="M288.0156,411.4844 L293.5938,411.4844 L293.5938,413.0469 L290.0781,413.0469 L290.0781,414.5313 L293.375,414.5313 L293.375,416.0938 L290.0781,416.0938 L290.0781,417.9375 L293.7031,417.9375 L293.7031,419.5 L288.0156,419.5 L288.0156,411.4844 Z " fill="#000000"/><text fill="#FFFFFF" font-family="Verdana" font-size="11" lengthAdjust="spacing" textLength="50" x="307" y="419.3081">ExtraInfo</text><line style="stroke:#1B1B1B;stroke-width:1.5;" x1="215.5" x2="423.5" y1="428.5" y2="428.5"/><text fill="#AAAAAA" font-family="sans-serif" font-size="11" lengthAdjust="spacing" textLength="27" x="220.5" y="442.7104">id:pk</text><text fill="#AAAAAA" font-family="sans-serif" font-size="11" lengthAdjust="spacing" textLength="184" x="220.5" y="455.5151">permanent_address :  CharField</text><text fill="#AAAAAA" font-family="sans-serif" font-size="11" lengthAdjust="spacing" textLength="163" x="220.5" y="468.3198">current_address :  CharField</text><text fill="#AAAAAA" font-family="sans-serif" font-size="11" lengthAdjust="spacing" textLength="115" x="220.5" y="481.1245">country  :  CharField</text><text fill="#AAAAAA" font-family="sans-serif" font-size="11" lengthAdjust="spacing" textLength="142" x="220.5" y="493.9292">date_of_birth :  DateField</text><line style="stroke:#1B1B1B;stroke-width:1.5;" x1="215.5" x2="423.5" y1="500.5234" y2="500.5234"/><text fill="#AAAAAA" font-family="sans-serif" font-size="11" lengthAdjust="spacing" textLength="198" x="220.5" y="514.7339">student_id :  ForeignKey(STUDENT)</text><path d="M6,444 L6,479.6094 A0,0 0 0 0 6,479.6094 L179,479.6094 A0,0 0 0 0 179,479.6094 L179,466 L214.42,462 L179,458 L179,454 L169,444 L6,444 A0,0 0 0 0 6,444 " fill="#1A66C2" filter="url(#f1a4tvp7dj8t2s)" style="stroke:#002642;stroke-width:1.0;"/><path d="M169,444 L169,454 L179,454 L169,444 " fill="#1A66C2" style="stroke:#002642;stroke-width:1.0;"/><text fill="#FFFFFF" font-family="Verdana" font-size="11" lengthAdjust="spacing" textLength="148" x="12" y="459.2104">used for recommendation</text><text fill="#FFFFFF" font-family="Verdana" font-size="11" lengthAdjust="spacing" textLength="103" x="16" y="472.0151">of scholarship (AI)</text><!--MD5=[013a60e799cac083ee63963eab8d9ed4]
class EmployerDetails--><rect codeLine="30" fill="#2E2E2E" filter="url(#f1a4tvp7dj8t2s)" height="118.8281" id="EmployerDetails" style="stroke:#1B1B1B;stroke-width:1.5;" width="210" x="584.5" y="402.5"/><ellipse cx="640" cy="415.5" fill="#1A66C2" rx="8" ry="8" style="stroke:#1B1B1B;stroke-width:1.0;"/><path d="M637.0156,411.4844 L642.5938,411.4844 L642.5938,413.0469 L639.0781,413.0469 L639.0781,414.5313 L642.375,414.5313 L642.375,416.0938 L639.0781,416.0938 L639.0781,417.9375 L642.7031,417.9375 L642.7031,419.5 L637.0156,419.5 L637.0156,411.4844 Z " fill="#000000"/><text fill="#FFFFFF" font-family="Verdana" font-size="11" lengthAdjust="spacing" textLength="92" x="656" y="419.3081">EmployerDetails</text><line style="stroke:#1B1B1B;stroke-width:1.5;" x1="585.5" x2="793.5" y1="428.5" y2="428.5"/><text fill="#AAAAAA" font-family="sans-serif" font-size="11" lengthAdjust="spacing" textLength="27" x="590.5" y="442.7104">id:pk</text><text fill="#AAAAAA" font-family="sans-serif" font-size="11" lengthAdjust="spacing" textLength="160" x="590.5" y="455.5151">employer_name :  CharField</text><text fill="#AAAAAA" font-family="sans-serif" font-size="11" lengthAdjust="spacing" textLength="175" x="590.5" y="468.3198">employer_address :  CharField</text><text fill="#AAAAAA" font-family="sans-serif" font-size="11" lengthAdjust="spacing" textLength="194" x="590.5" y="481.1245">employer_designation :  CharField</text><text fill="#AAAAAA" font-family="sans-serif" font-size="11" lengthAdjust="spacing" textLength="163" x="590.5" y="493.9292">employer_phone :  CharField</text><line style="stroke:#1B1B1B;stroke-width:1.5;" x1="585.5" x2="793.5" y1="500.5234" y2="500.5234"/><text fill="#AAAAAA" font-family="sans-serif" font-size="11" lengthAdjust="spacing" textLength="198" x="590.5" y="514.7339">student_id :  ForeignKey(STUDENT)</text><path d="M460,450.5 L460,473.3047 A0,0 0 0 0 460,473.3047 L549,473.3047 A0,0 0 0 0 549,473.3047 L549,468.5 L584.35,462 L549,460.5 L549,460.5 L539,450.5 L460,450.5 A0,0 0 0 0 460,450.5 " fill="#1A66C2" filter="url(#f1a4tvp7dj8t2s)" style="stroke:#002642;stroke-width:1.0;"/><path d="M539,450.5 L539,460.5 L549,460.5 L539,450.5 " fill="#1A66C2" style="stroke:#002642;stroke-width:1.0;"/><text fill="#FFFFFF" font-family="Verdana" font-size="11" lengthAdjust="spacing" textLength="68" x="466" y="465.7104">if applicable</text><!--MD5=[20beff33471a77aea082c04917e674fa]
class SchoolAttended--><rect codeLine="42" fill="#2E2E2E" filter="url(#f1a4tvp7dj8t2s)" height="93.2188" id="SchoolAttended" style="stroke:#1B1B1B;stroke-width:1.5;" width="294" x="873.5" y="192"/><ellipse cx="973" cy="205" fill="#1A66C2" rx="8" ry="8" style="stroke:#1B1B1B;stroke-width:1.0;"/><path d="M970.0156,200.9844 L975.5938,200.9844 L975.5938,202.5469 L972.0781,202.5469 L972.0781,204.0313 L975.375,204.0313 L975.375,205.5938 L972.0781,205.5938 L972.0781,207.4375 L975.7031,207.4375 L975.7031,209 L970.0156,209 L970.0156,200.9844 Z " fill="#000000"/><text fill="#FFFFFF" font-family="Verdana" font-size="11" lengthAdjust="spacing" textLength="88" x="989" y="208.8081">SchoolAttended</text><line style="stroke:#1B1B1B;stroke-width:1.5;" x1="874.5" x2="1166.5" y1="218" y2="218"/><text fill="#AAAAAA" font-family="sans-serif" font-size="11" lengthAdjust="spacing" textLength="27" x="879.5" y="232.2104">id:pk</text><text fill="#AAAAAA" font-family="sans-serif" font-size="11" lengthAdjust="spacing" textLength="144" x="879.5" y="245.0151">school_name :  CharField</text><text fill="#AAAAAA" font-family="sans-serif" font-size="11" lengthAdjust="spacing" textLength="172" x="879.5" y="257.8198">final_performance :  CharField</text><line style="stroke:#1B1B1B;stroke-width:1.5;" x1="874.5" x2="1166.5" y1="264.4141" y2="264.4141"/><text fill="#AAAAAA" font-family="sans-serif" font-size="11" lengthAdjust="spacing" textLength="282" x="879.5" y="278.6245">school_type :  CharField("primary,secondary,etc")</text><!--MD5=[ac7c39032e1473f867f3fb80f117f35c]
class Commitee--><rect codeLine="51" fill="#2E2E2E" filter="url(#f1a4tvp7dj8t2s)" height="80.4141" id="Commitee" style="stroke:#1B1B1B;stroke-width:1.5;" width="175" x="1229" y="7"/><ellipse cx="1284" cy="20" fill="#1A66C2" rx="8" ry="8" style="stroke:#1B1B1B;stroke-width:1.0;"/><path d="M1281.0156,15.9844 L1286.5938,15.9844 L1286.5938,17.5469 L1283.0781,17.5469 L1283.0781,19.0313 L1286.375,19.0313 L1286.375,20.5938 L1283.0781,20.5938 L1283.0781,22.4375 L1286.7031,22.4375 L1286.7031,24 L1281.0156,24 L1281.0156,15.9844 Z " fill="#000000"/><text fill="#FFFFFF" font-family="Verdana" font-size="11" lengthAdjust="spacing" textLength="58" x="1300" y="23.8081">Commitee</text><line style="stroke:#1B1B1B;stroke-width:1.5;" x1="1230" x2="1403" y1="33" y2="33"/><text fill="#AAAAAA" font-family="sans-serif" font-size="11" lengthAdjust="spacing" textLength="27" x="1235" y="47.2104">id:pk</text><text fill="#AAAAAA" font-family="sans-serif" font-size="11" lengthAdjust="spacing" textLength="163" x="1235" y="60.0151">commitee_name :  CharField</text><text fill="#AAAAAA" font-family="sans-serif" font-size="11" lengthAdjust="spacing" textLength="138" x="1235" y="72.8198">chair_email :  EmailField</text><line style="stroke:#1B1B1B;stroke-width:1.5;" x1="1230" x2="1403" y1="79.4141" y2="79.4141"/><!--MD5=[548b400e6be8687183d1879bd2494876]
class CommiteeMember--><rect codeLine="57" fill="#2E2E2E" filter="url(#f1a4tvp7dj8t2s)" height="131.6328" id="CommiteeMember" style="stroke:#1B1B1B;stroke-width:1.5;" width="228" x="610.5" y="172.5"/><ellipse cx="669" cy="185.5" fill="#1A66C2" rx="8" ry="8" style="stroke:#1B1B1B;stroke-width:1.0;"/><path d="M666.0156,181.4844 L671.5938,181.4844 L671.5938,183.0469 L668.0781,183.0469 L668.0781,184.5313 L671.375,184.5313 L671.375,186.0938 L668.0781,186.0938 L668.0781,187.9375 L671.7031,187.9375 L671.7031,189.5 L666.0156,189.5 L666.0156,181.4844 Z " fill="#000000"/><text fill="#FFFFFF" font-family="Verdana" font-size="11" lengthAdjust="spacing" textLength="104" x="685" y="189.3081">CommiteeMember</text><line style="stroke:#1B1B1B;stroke-width:1.5;" x1="611.5" x2="837.5" y1="198.5" y2="198.5"/><text fill="#AAAAAA" font-family="sans-serif" font-size="11" lengthAdjust="spacing" textLength="27" x="616.5" y="212.7104">id:pk</text><text fill="#AAAAAA" font-family="sans-serif" font-size="11" lengthAdjust="spacing" textLength="130" x="616.5" y="225.5151">first_name :  CharField</text><text fill="#AAAAAA" font-family="sans-serif" font-size="11" lengthAdjust="spacing" textLength="128" x="616.5" y="238.3198">last_name :  CharField</text><text fill="#AAAAAA" font-family="sans-serif" font-size="11" lengthAdjust="spacing" textLength="124" x="616.5" y="251.1245">phone_no :  CharField</text><text fill="#AAAAAA" font-family="sans-serif" font-size="11" lengthAdjust="spacing" textLength="173" x="616.5" y="263.9292">department_name :  CharField</text><text fill="#AAAAAA" font-family="sans-serif" font-size="11" lengthAdjust="spacing" textLength="125" x="616.5" y="276.7339">password :  CharField</text><line style="stroke:#1B1B1B;stroke-width:1.5;" x1="611.5" x2="837.5" y1="283.3281" y2="283.3281"/><text fill="#AAAAAA" font-family="sans-serif" font-size="11" lengthAdjust="spacing" textLength="216" x="616.5" y="297.5386">commitee_id :  ForeignKey(Commitee)</text><!--MD5=[e45913d955fb9636443b11cbd42c86a8]
class Scholarship--><rect codeLine="69" fill="#2E2E2E" filter="url(#f1a4tvp7dj8t2s)" height="182.8516" id="Scholarship" style="stroke:#1B1B1B;stroke-width:1.5;" width="228" x="1202.5" y="147"/><ellipse cx="1279.5" cy="160" fill="#1A66C2" rx="8" ry="8" style="stroke:#1B1B1B;stroke-width:1.0;"/><path d="M1276.5156,155.9844 L1282.0938,155.9844 L1282.0938,157.5469 L1278.5781,157.5469 L1278.5781,159.0313 L1281.875,159.0313 L1281.875,160.5938 L1278.5781,160.5938 L1278.5781,162.4375 L1282.2031,162.4375 L1282.2031,164 L1276.5156,164 L1276.5156,155.9844 Z " fill="#000000"/><text fill="#FFFFFF" font-family="Verdana" font-size="11" lengthAdjust="spacing" textLength="67" x="1295.5" y="163.8081">Scholarship</text><line style="stroke:#1B1B1B;stroke-width:1.5;" x1="1203.5" x2="1429.5" y1="173" y2="173"/><text fill="#AAAAAA" font-family="sans-serif" font-size="11" lengthAdjust="spacing" textLength="27" x="1208.5" y="187.2104">id:pk</text><text fill="#AAAAAA" font-family="sans-serif" font-size="11" lengthAdjust="spacing" textLength="173" x="1208.5" y="200.0151">scholarship_name :  CharField</text><text fill="#AAAAAA" font-family="sans-serif" font-size="11" lengthAdjust="spacing" textLength="144" x="1208.5" y="212.8198">school_name :  CharField</text><text fill="#AAAAAA" font-family="sans-serif" font-size="11" lengthAdjust="spacing" textLength="180" x="1208.5" y="225.6245">deadline_apply :  DateTimeField</text><text fill="#AAAAAA" font-family="sans-serif" font-size="11" lengthAdjust="spacing" textLength="187" x="1208.5" y="238.4292">deadline_review :  DateTimeField</text><text fill="#AAAAAA" font-family="sans-serif" font-size="11" lengthAdjust="spacing" textLength="176" x="1208.5" y="251.2339">scholarship_details :  TextField</text><text fill="#AAAAAA" font-family="sans-serif" font-size="11" lengthAdjust="spacing" textLength="117" x="1208.5" y="264.0386">web_link :  CharField</text><text fill="#AAAAAA" font-family="sans-serif" font-size="11" lengthAdjust="spacing" textLength="176" x="1208.5" y="276.8433">scholarship_budget : CharField</text><text fill="#AAAAAA" font-family="sans-serif" font-size="11" lengthAdjust="spacing" textLength="183" x="1208.5" y="289.6479">scholarship_country :  CharField</text><line style="stroke:#1B1B1B;stroke-width:1.5;" x1="1203.5" x2="1429.5" y1="296.2422" y2="296.2422"/><text fill="#AAAAAA" font-family="sans-serif" font-size="11" lengthAdjust="spacing" textLength="180" x="1208.5" y="310.4526">scholarship_type : ("full","part")</text><text fill="#AAAAAA" font-family="sans-serif" font-size="11" lengthAdjust="spacing" textLength="216" x="1208.5" y="323.2573">commitee_id :  ForeignKey(Commitee)</text><!--MD5=[0b4e4b4980470ea387cc45de9bd14b5b]
class Application--><rect codeLine="87" fill="#2E2E2E" filter="url(#f1a4tvp7dj8t2s)" height="144.4375" id="Application" style="stroke:#1B1B1B;stroke-width:1.5;" width="247" x="1040" y="390"/><ellipse cx="1129.5" cy="403" fill="#1A66C2" rx="8" ry="8" style="stroke:#1B1B1B;stroke-width:1.0;"/><path d="M1126.5156,398.9844 L1132.0938,398.9844 L1132.0938,400.5469 L1128.5781,400.5469 L1128.5781,402.0313 L1131.875,402.0313 L1131.875,403.5938 L1128.5781,403.5938 L1128.5781,405.4375 L1132.2031,405.4375 L1132.2031,407 L1126.5156,407 L1126.5156,398.9844 Z " fill="#000000"/><text fill="#FFFFFF" font-family="Verdana" font-size="11" lengthAdjust="spacing" textLength="61" x="1145.5" y="406.8081">Application</text><line style="stroke:#1B1B1B;stroke-width:1.5;" x1="1041" x2="1286" y1="416" y2="416"/><text fill="#AAAAAA" font-family="sans-serif" font-size="11" lengthAdjust="spacing" textLength="27" x="1046" y="430.2104">id:pk</text><text fill="#AAAAAA" font-family="sans-serif" font-size="11" lengthAdjust="spacing" textLength="141" x="1046" y="443.0151">resume_letter :  FileField</text><text fill="#AAAAAA" font-family="sans-serif" font-size="11" lengthAdjust="spacing" textLength="182" x="1046" y="455.8198">extra_notes_resume : CharField</text><text fill="#AAAAAA" font-family="sans-serif" font-size="11" lengthAdjust="spacing" textLength="193" x="1046" y="468.6245">recommendation_letter :  FileField</text><text fill="#AAAAAA" font-family="sans-serif" font-size="11" lengthAdjust="spacing" textLength="190" x="1046" y="481.4292">etra_notes_rec_letter :  CharField</text><line style="stroke:#1B1B1B;stroke-width:1.5;" x1="1041" x2="1286" y1="488.0234" y2="488.0234"/><text fill="#AAAAAA" font-family="sans-serif" font-size="11" lengthAdjust="spacing" textLength="235" x="1046" y="502.2339">scholarship_id :  ForeignKey(Scholarship)</text><text fill="#AAAAAA" font-family="sans-serif" font-size="11" lengthAdjust="spacing" textLength="198" x="1046" y="515.0386">student_id :  ForeignKey(CharField)</text><text fill="#AAAAAA" font-family="sans-serif" font-size="11" lengthAdjust="spacing" textLength="227" x="1046" y="527.8433">school_id :  ForeignKey(SchoolAttended)</text><!--MD5=[1a502b0dbedafd291c48f46ef8646183]
class Feedback--><rect codeLine="105" fill="#2E2E2E" filter="url(#f1a4tvp7dj8t2s)" height="106.0234" id="Feedback" style="stroke:#1B1B1B;stroke-width:1.5;" width="306" x="1098.5" y="594"/><ellipse cx="1221.5" cy="607" fill="#1A66C2" rx="8" ry="8" style="stroke:#1B1B1B;stroke-width:1.0;"/><path d="M1218.5156,602.9844 L1224.0938,602.9844 L1224.0938,604.5469 L1220.5781,604.5469 L1220.5781,606.0313 L1223.875,606.0313 L1223.875,607.5938 L1220.5781,607.5938 L1220.5781,609.4375 L1224.2031,609.4375 L1224.2031,611 L1218.5156,611 L1218.5156,602.9844 Z " fill="#000000"/><text fill="#FFFFFF" font-family="Verdana" font-size="11" lengthAdjust="spacing" textLength="53" x="1237.5" y="610.8081">Feedback</text><line style="stroke:#1B1B1B;stroke-width:1.5;" x1="1099.5" x2="1403.5" y1="620" y2="620"/><text fill="#AAAAAA" font-family="sans-serif" font-size="11" lengthAdjust="spacing" textLength="27" x="1104.5" y="634.2104">id:pk</text><text fill="#AAAAAA" font-family="sans-serif" font-size="11" lengthAdjust="spacing" textLength="197" x="1104.5" y="647.0151">application_etra_notes :  CharField</text><line style="stroke:#1B1B1B;stroke-width:1.5;" x1="1099.5" x2="1403.5" y1="653.6094" y2="653.6094"/><text fill="#AAAAAA" font-family="sans-serif" font-size="11" lengthAdjust="spacing" textLength="212" x="1104.5" y="667.8198">commitee_id : ForeignKey(Commitee)</text><text fill="#AAAAAA" font-family="sans-serif" font-size="11" lengthAdjust="spacing" textLength="224" x="1104.5" y="680.6245">application_id :  ForeignKey(Application)</text><text fill="#AAAAAA" font-family="sans-serif" font-size="11" lengthAdjust="spacing" textLength="294" x="1104.5" y="693.4292">application_status :  Boolean("accepted","rejected")</text><!--MD5=[62ba8ad8b61caf20139235a169a8c31d]
class Response--><rect codeLine="119" fill="#2E2E2E" filter="url(#f1a4tvp7dj8t2s)" height="80.4141" id="Response" style="stroke:#1B1B1B;stroke-width:1.5;" width="214" x="1144.5" y="760"/><ellipse cx="1220" cy="773" fill="#1A66C2" rx="8" ry="8" style="stroke:#1B1B1B;stroke-width:1.0;"/><path d="M1217.0156,768.9844 L1222.5938,768.9844 L1222.5938,770.5469 L1219.0781,770.5469 L1219.0781,772.0313 L1222.375,772.0313 L1222.375,773.5938 L1219.0781,773.5938 L1219.0781,775.4375 L1222.7031,775.4375 L1222.7031,777 L1217.0156,777 L1217.0156,768.9844 Z " fill="#000000"/><text fill="#FFFFFF" font-family="Verdana" font-size="11" lengthAdjust="spacing" textLength="56" x="1236" y="776.8081">Response</text><line style="stroke:#1B1B1B;stroke-width:1.5;" x1="1145.5" x2="1357.5" y1="786" y2="786"/><text fill="#AAAAAA" font-family="sans-serif" font-size="11" lengthAdjust="spacing" textLength="27" x="1150.5" y="800.2104">id:pk</text><text fill="#AAAAAA" font-family="sans-serif" font-size="11" lengthAdjust="spacing" textLength="150" x="1150.5" y="813.0151">response_text :  CharField</text><line style="stroke:#1B1B1B;stroke-width:1.5;" x1="1145.5" x2="1357.5" y1="819.6094" y2="819.6094"/><text fill="#AAAAAA" font-family="sans-serif" font-size="11" lengthAdjust="spacing" textLength="202" x="1150.5" y="833.8198">feedback_id : ForeignKey(Feedback)</text><!--MD5=[2190ac01dbfbd661c0c8062bb6dd3b53]
link STUDENT to ExtraInfo--><path codeLine="28" d="M444.8,310.98 C421.99,338.28 396.14,369.24 373.86,395.91 " fill="none" id="STUDENT-ExtraInfo" style="stroke:#FFFFFF;stroke-width:1.0;stroke-dasharray:7.0,7.0;"/><line style="stroke:#FFFFFF;stroke-width:1.0;" x1="373.7141" x2="373.1814" y1="396.1048" y2="406.0906"/><line style="stroke:#FFFFFF;stroke-width:1.0;" x1="373.7141" x2="363.9786" y1="396.1048" y2="398.3894"/><line style="stroke:#FFFFFF;stroke-width:1.0;" x1="373.7141" x2="368.58" y1="396.1048" y2="402.24"/><line style="stroke:#FFFFFF;stroke-width:1.0;" x1="378.0653" x2="371.9301" y1="397.1381" y2="392.0039"/><line style="stroke:#FFFFFF;stroke-width:1.0;" x1="444.3559" x2="450.497" y1="305.267" y2="310.3941"/><line style="stroke:#FFFFFF;stroke-width:1.0;" x1="442.4333" x2="448.5743" y1="307.5699" y2="312.697"/><line style="stroke:#FFFFFF;stroke-width:1.0;" x1="444.8629" x2="449.99" y1="310.9011" y2="304.76"/><!--MD5=[e03cc328c1213f7275ca77506b9c42ad]
link STUDENT to EmployerDetails--><path codeLine="38" d="M564.2,310.98 C587.01,338.28 612.86,369.24 635.14,395.91 " fill="none" id="STUDENT-EmployerDetails" style="stroke:#FFFFFF;stroke-width:1.0;stroke-dasharray:7.0,7.0;"/><line style="stroke:#FFFFFF;stroke-width:1.0;" x1="635.2859" x2="645.0214" y1="396.1048" y2="398.3894"/><line style="stroke:#FFFFFF;stroke-width:1.0;" x1="635.2859" x2="635.8186" y1="396.1048" y2="406.0906"/><line style="stroke:#FFFFFF;stroke-width:1.0;" x1="635.2859" x2="640.42" y1="396.1048" y2="402.24"/><line style="stroke:#FFFFFF;stroke-width:1.0;" x1="637.0699" x2="630.9347" y1="392.0039" y2="397.1381"/><line style="stroke:#FFFFFF;stroke-width:1.0;" x1="558.503" x2="564.6441" y1="310.3941" y2="305.267"/><line style="stroke:#FFFFFF;stroke-width:1.0;" x1="560.4257" x2="566.5667" y1="312.697" y2="307.5699"/><line style="stroke:#FFFFFF;stroke-width:1.0;" x1="564.1371" x2="559.01" y1="310.9011" y2="304.76"/><!--MD5=[4ab6c9e7a6aeb0539e1edad1c103494c]
link Commitee to CommiteeMember--><path codeLine="67" d="M1220.63,57.49 C1124.99,69.48 975.42,95.16 855.5,147 C842.12,152.78 828.69,160.03 815.81,167.88 " fill="none" id="Commitee-CommiteeMember" style="stroke:#FFFFFF;stroke-width:1.0;stroke-dasharray:7.0,7.0;"/><line style="stroke:#FFFFFF;stroke-width:1.0;" x1="815.5036" x2="811.8784" y1="168.0754" y2="177.3952"/><line style="stroke:#FFFFFF;stroke-width:1.0;" x1="815.5036" x2="805.5416" y1="168.0754" y2="167.2048"/><line style="stroke:#FFFFFF;stroke-width:1.0;" x1="815.5036" x2="808.71" y1="168.0754" y2="172.3"/><line style="stroke:#FFFFFF;stroke-width:1.0;" x1="819.3143" x2="815.0897" y1="170.4161" y2="163.6225"/><line style="stroke:#FFFFFF;stroke-width:1.0;" x1="1224.404" x2="1225.3752" y1="52.9852" y2="60.926"/><line style="stroke:#FFFFFF;stroke-width:1.0;" x1="1221.4262" x2="1222.3974" y1="53.3494" y2="61.2902"/><line style="stroke:#FFFFFF;stroke-width:1.0;" x1="1220.9192" x2="1228.86" y1="57.4412" y2="56.47"/><!--MD5=[351eed6138cbad3ab79322a69d4fc737]
link Commitee to Scholarship--><path codeLine="85" d="M1316.5,95.66 C1316.5,108.79 1316.5,123.54 1316.5,138.43 " fill="none" id="Commitee-Scholarship" style="stroke:#FFFFFF;stroke-width:1.0;stroke-dasharray:7.0,7.0;"/><line style="stroke:#FFFFFF;stroke-width:1.0;" x1="1316.5" x2="1322.5" y1="138.7" y2="146.7"/><line style="stroke:#FFFFFF;stroke-width:1.0;" x1="1316.5" x2="1310.5" y1="138.7" y2="146.7"/><line style="stroke:#FFFFFF;stroke-width:1.0;" x1="1316.5" x2="1316.5" y1="138.7" y2="146.7"/><line style="stroke:#FFFFFF;stroke-width:1.0;" x1="1320.5" x2="1312.5" y1="136.7" y2="136.7"/><line style="stroke:#FFFFFF;stroke-width:1.0;" x1="1312.5" x2="1320.5" y1="91.26" y2="91.26"/><line style="stroke:#FFFFFF;stroke-width:1.0;" x1="1312.5" x2="1320.5" y1="94.26" y2="94.26"/><line style="stroke:#FFFFFF;stroke-width:1.0;" x1="1316.5" x2="1316.5" y1="95.26" y2="87.26"/><!--MD5=[b3ecb7c2b141f7be8b529d46e0bbe35f]
link STUDENT to Application--><path codeLine="101" d="M564.83,310.25 C573.52,317.71 582.82,324.55 592.5,330 C630.64,351.46 875.54,403.27 1031.98,434.92 " fill="none" id="STUDENT-Application" style="stroke:#FFFFFF;stroke-width:1.0;stroke-dasharray:7.0,7.0;"/><line style="stroke:#FFFFFF;stroke-width:1.0;" x1="1031.9887" x2="1041.0191" y1="434.9246" y2="430.629"/><line style="stroke:#FFFFFF;stroke-width:1.0;" x1="1031.9887" x2="1038.6409" y1="434.9246" y2="442.391"/><line style="stroke:#FFFFFF;stroke-width:1.0;" x1="1031.9887" x2="1039.83" y1="434.9246" y2="436.51"/><line style="stroke:#FFFFFF;stroke-width:1.0;" x1="1030.821" x2="1029.2356" y1="430.6076" y2="438.4489"/><line style="stroke:#FFFFFF;stroke-width:1.0;" x1="558.9488" x2="564.2673" y1="310.3573" y2="304.3812"/><line style="stroke:#FFFFFF;stroke-width:1.0;" x1="561.1899" x2="566.5083" y1="312.3517" y2="306.3756"/><line style="stroke:#FFFFFF;stroke-width:1.0;" x1="564.5961" x2="558.62" y1="310.0285" y2="304.71"/><!--MD5=[ad5308907e426870c77399ded622c546]
link SchoolAttended to Application--><path codeLine="102" d="M1054.39,292 C1071.91,319.14 1093.65,352.81 1113.1,382.93 " fill="none" id="SchoolAttended-Application" style="stroke:#FFFFFF;stroke-width:1.0;stroke-dasharray:7.0,7.0;"/><line style="stroke:#FFFFFF;stroke-width:1.0;" x1="1113.1252" x2="1122.508" y1="382.9827" y2="386.4414"/><line style="stroke:#FFFFFF;stroke-width:1.0;" x1="1113.1252" x2="1112.432" y1="382.9827" y2="392.9586"/><line style="stroke:#FFFFFF;stroke-width:1.0;" x1="1113.1252" x2="1117.47" y1="382.9827" y2="389.7"/><line style="stroke:#FFFFFF;stroke-width:1.0;" x1="1115.3976" x2="1108.6803" y1="379.1309" y2="383.4758"/><line style="stroke:#FFFFFF;stroke-width:1.0;" x1="1048.7684" x2="1055.4899" y1="290.6599" y2="286.3216"/><line style="stroke:#FFFFFF;stroke-width:1.0;" x1="1050.3953" x2="1057.1168" y1="293.1805" y2="288.8422"/><line style="stroke:#FFFFFF;stroke-width:1.0;" x1="1054.2983" x2="1049.96" y1="291.8515" y2="285.13"/><!--MD5=[cd9e2084b88b4f9e1b8c572c2012ea55]
link Scholarship to Application--><path codeLine="103" d="M1248.99,337.24 C1238.41,352.55 1227.6,368.2 1217.38,383 " fill="none" id="Scholarship-Application" style="stroke:#FFFFFF;stroke-width:1.0;stroke-dasharray:7.0,7.0;"/><line style="stroke:#FFFFFF;stroke-width:1.0;" x1="1217.2822" x2="1217.6639" y1="383.1514" y2="393.1441"/><line style="stroke:#FFFFFF;stroke-width:1.0;" x1="1217.2822" x2="1207.7961" y1="383.1514" y2="386.3159"/><line style="stroke:#FFFFFF;stroke-width:1.0;" x1="1217.2822" x2="1212.73" y1="383.1514" y2="389.73"/><line style="stroke:#FFFFFF;stroke-width:1.0;" x1="1221.7095" x2="1215.131" y1="383.7829" y2="379.2307"/><line style="stroke:#FFFFFF;stroke-width:1.0;" x1="1248.2636" x2="1254.8375" y1="331.2375" y2="335.7964"/><line style="stroke:#FFFFFF;stroke-width:1.0;" x1="1246.554" x2="1253.1279" y1="333.7028" y2="338.2616"/><line style="stroke:#FFFFFF;stroke-width:1.0;" x1="1249.2711" x2="1253.83" y1="336.8039" y2="330.23"/><!--MD5=[d0ad3bff328e4a05920baf5581c4c144]
link Application to Feedback--><path codeLine="116" d="M1201.26,541.53 C1208.49,556.56 1215.95,572.07 1222.83,586.38 " fill="none" id="Application-Feedback" style="stroke:#FFFFFF;stroke-width:1.0;stroke-dasharray:7.0,7.0;"/><line style="stroke:#FFFFFF;stroke-width:1.0;" x1="1222.9128" x2="1231.7808" y1="586.5356" y2="591.1571"/><line style="stroke:#FFFFFF;stroke-width:1.0;" x1="1222.9128" x2="1220.9592" y1="586.5356" y2="596.3429"/><line style="stroke:#FFFFFF;stroke-width:1.0;" x1="1222.9128" x2="1226.37" y1="586.5356" y2="593.75"/><line style="stroke:#FFFFFF;stroke-width:1.0;" x1="1225.6557" x2="1218.4413" y1="583.0034" y2="586.4606"/><line style="stroke:#FFFFFF;stroke-width:1.0;" x1="1195.78" x2="1202.9888" y1="539.3488" y2="535.88"/><line style="stroke:#FFFFFF;stroke-width:1.0;" x1="1197.0808" x2="1204.2896" y1="542.0521" y2="538.5833"/><line style="stroke:#FFFFFF;stroke-width:1.0;" x1="1201.1188" x2="1197.65" y1="541.2188" y2="534.01"/><!--MD5=[8dc8b389bd775de12d056f77ca0f3bd2]
link Commitee to Feedback--><path codeLine="117" d="M1399.38,91.94 C1419.06,106.65 1437.51,125.02 1448.5,147 C1484.87,219.75 1470.88,251.81 1448.5,330 C1420.14,429.1 1350.69,527.33 1302.33,587.34 " fill="none" id="Commitee-Feedback" style="stroke:#FFFFFF;stroke-width:1.0;stroke-dasharray:7.0,7.0;"/><line style="stroke:#FFFFFF;stroke-width:1.0;" x1="1302.181" x2="1301.799" y1="587.528" y2="597.5207"/><line style="stroke:#FFFFFF;stroke-width:1.0;" x1="1302.181" x2="1292.481" y1="587.528" y2="589.9593"/><line style="stroke:#FFFFFF;stroke-width:1.0;" x1="1302.181" x2="1297.14" y1="587.528" y2="593.74"/><line style="stroke:#FFFFFF;stroke-width:1.0;" x1="1306.5472" x2="1300.3352" y1="588.4955" y2="583.4546"/><line style="stroke:#FFFFFF;stroke-width:1.0;" x1="1393.5779" x2="1398.2535" y1="92.6735" y2="86.1821"/><line style="stroke:#FFFFFF;stroke-width:1.0;" x1="1396.0122" x2="1400.6878" y1="94.4269" y2="87.9354"/><line style="stroke:#FFFFFF;stroke-width:1.0;" x1="1399.1615" x2="1392.67" y1="91.7656" y2="87.09"/><!--MD5=[2f4fdb758c257a2a52c672d426bb3c50]
link Feedback to Response--><path codeLine="126" d="M1251.5,708.7 C1251.5,722.89 1251.5,737.81 1251.5,751.34 " fill="none" id="Feedback-Response" style="stroke:#FFFFFF;stroke-width:1.0;stroke-dasharray:7.0,7.0;"/><line style="stroke:#FFFFFF;stroke-width:1.0;" x1="1251.5" x2="1257.5" y1="751.56" y2="759.56"/><line style="stroke:#FFFFFF;stroke-width:1.0;" x1="1251.5" x2="1245.5" y1="751.56" y2="759.56"/><line style="stroke:#FFFFFF;stroke-width:1.0;" x1="1251.5" x2="1251.5" y1="751.56" y2="759.56"/><line style="stroke:#FFFFFF;stroke-width:1.0;" x1="1255.5" x2="1247.5" y1="749.56" y2="749.56"/><line style="stroke:#FFFFFF;stroke-width:1.0;" x1="1247.5" x2="1255.5" y1="704.39" y2="704.39"/><line style="stroke:#FFFFFF;stroke-width:1.0;" x1="1247.5" x2="1255.5" y1="707.39" y2="707.39"/><line style="stroke:#FFFFFF;stroke-width:1.0;" x1="1251.5" x2="1251.5" y1="708.39" y2="700.39"/><!--MD5=[b22f21b3889639fc754a1b1d98d07da8]
@startuml edu_database
!define DARKBLUE
!includeurl https://raw.githubusercontent.com/Drakemor/RedDress-PlantUML/master/style.puml


entity STUDENT{
    id:pk 
    username :  CharField
    first_name :  CharField
    last_name :  CharField
    email :  EmailField
    phone :  CharField
    password :  CharField

}

entity ExtraInfo{
    id:pk
    student_id :  ForeignKey(STUDENT)
    permanent_address :  CharField
    current_address :  CharField
    country  :  CharField
    date_of_birth :  DateField 

}
note left of ExtraInfo :  used for recommendation \n of scholarship (AI)


STUDENT ||..|{ ExtraInfo

entity EmployerDetails{
    id:pk 
    employer_name :  CharField
    employer_address :  CharField
    employer_designation :  CharField
    employer_phone :  CharField
    student_id :  ForeignKey(STUDENT)
}
STUDENT ||..|{ EmployerDetails

note left of EmployerDetails : if applicable

entity SchoolAttended{
    id:pk 
    school_name :  CharField
    school_type :  CharField("primary,secondary,etc")
    final_performance :  CharField
}



entity Commitee{
    id:pk
    commitee_name :  CharField
    chair_email :  EmailField
}

entity CommiteeMember{
    id:pk 
    first_name :  CharField
    last_name :  CharField
    phone_no :  CharField
    department_name :  CharField
    password :  CharField
    commitee_id :  ForeignKey(Commitee)
}

Commitee ||..|{ CommiteeMember

entity Scholarship{
    id:pk 
    scholarship_name :  CharField
    school_name :  CharField
    deadline_apply :  DateTimeField
    deadline_review :  DateTimeField
    scholarship_details :  TextField 
    web_link :  CharField
    scholarship_budget : CharField
    scholarship_type : ("full","part")
    scholarship_country :  CharField
    commitee_id :  ForeignKey(Commitee)


}

Commitee ||..|{ Scholarship

entity Application{
    id:pk
    scholarship_id :  ForeignKey(Scholarship)
    student_id :  ForeignKey(CharField)
    school_id :  ForeignKey(SchoolAttended)
    resume_letter :  FileField
    extra_notes_resume : CharField
    recommendation_letter :  FileField
    etra_notes_rec_letter :  CharField

    

}

STUDENT||..|{ Application
SchoolAttended||..|{ Application
Scholarship ||..|{ Application

entity Feedback{
    id:pk
    commitee_id : ForeignKey(Commitee)
    application_id :  ForeignKey(Application)
    application_status :  Boolean("accepted","rejected")
    application_etra_notes :  CharField

    

}

Application||..|{ Feedback
Commitee||..|{ Feedback

entity Response{
    id:pk
    feedback_id : ForeignKey(Feedback)
    response_text :  CharField

}

Feedback||..|{ Response




@enduml

@startuml edu_database



skinparam backgroundColor 777
skinparam stereotypeCBackgroundColor 1a66c2









skinparam backgroundColor 777







skinparam circledCharacter {
  radius 8
  fontSize 11
  fontName Verdana
}

skinparam class {
    backgroundColor 2e2e2e
  borderColor 1b1b1b
    fontColor fff
  fontName Verdana
  fontSize 11
  stereotypeFontColor aaa
  stereotypeFontSize 11
    arrowColor fff
  arrowFontName Verdana
  arrowFontColor bbb
  arrowFontSize 11

  attributeFontColor aaa
  attributeFontSize 11
  attributeIconSize 11
}


skinparam actor {
    backgroundColor 1a66c2
  borderColor 002642
    fontColor fff
  fontName Verdana
  fontSize 11
  stereotypeFontColor aaa
  stereotypeFontSize 11
}

skinparam participant {
    backgroundColor 2e2e2e
  borderColor 1b1b1b
    fontColor fff
  fontName Verdana
  fontSize 11
  stereotypeFontColor aaa
  stereotypeFontSize 11
}

skinparam collections {
    backgroundColor 2e2e2e
  borderColor 1b1b1b
    fontColor fff
  fontName Verdana
  fontSize 11
  stereotypeFontColor aaa
  stereotypeFontSize 11
}

skinparam SequenceBox{
    backgroundColor 575757
  borderColor 767676
    fontColor fff
  fontName Verdana
  fontSize 11
  stereotypeFontColor aaa
  stereotypeFontSize 11
}


skinparam interface {
    backgroundColor 1a66c2
  borderColor 002642
    fontColor fff
  fontName Verdana
  fontSize 11
  stereotypeFontColor aaa
  stereotypeFontSize 11
}

skinparam component {
    backgroundColor 2e2e2e
  borderColor 1b1b1b
    fontColor fff
  fontName Verdana
  fontSize 11
  stereotypeFontColor aaa
  stereotypeFontSize 11
}

skinparam node {
    backgroundColor 2e2e2e
  borderColor 1b1b1b
    fontColor fff
  fontName Verdana
  fontSize 11
  stereotypeFontColor aaa
  stereotypeFontSize 11
}

skinparam database {
    backgroundColor 2e2e2e
  borderColor 1b1b1b
    fontColor fff
  fontName Verdana
  fontSize 11
  stereotypeFontColor aaa
  stereotypeFontSize 11
}

skinparam queue {
    backgroundColor 2e2e2e
  borderColor 1b1b1b
    fontColor fff
  fontName Verdana
  fontSize 11
  stereotypeFontColor aaa
  stereotypeFontSize 11
}


skinparam usecase {
    backgroundColor 2e2e2e
  borderColor 1b1b1b
    fontColor fff
  fontName Verdana
  fontSize 11
  stereotypeFontColor aaa
  stereotypeFontSize 11
    arrowColor fff
  arrowFontName Verdana
  arrowFontColor bbb
  arrowFontSize 11
}

skinparam activity {
    backgroundColor 2e2e2e
  borderColor 1b1b1b
    fontColor fff
  fontName Verdana
  fontSize 11
  stereotypeFontColor aaa
  stereotypeFontSize 11
    arrowColor fff
  arrowFontName Verdana
  arrowFontColor bbb
  arrowFontSize 11
}

skinparam sequence {
    fontColor fff
  fontName Verdana
  fontSize 11
  stereotypeFontColor aaa
  stereotypeFontSize 11
    arrowColor fff
  arrowFontName Verdana
  arrowFontColor bbb
  arrowFontSize 11

  lifeLineBorderColor 1a66c2
  lifeLineBackgroundColor 575757
}

skinparam boundary {
    backgroundColor 1a66c2
  borderColor 002642
    fontColor fff
  fontName Verdana
  fontSize 11
  stereotypeFontColor aaa
  stereotypeFontSize 11
}

skinparam control {
    backgroundColor 1a66c2
  borderColor 002642
    fontColor fff
  fontName Verdana
  fontSize 11
  stereotypeFontColor aaa
  stereotypeFontSize 11
}

skinparam entity {
    backgroundColor 1a66c2
  borderColor 002642
    fontColor fff
  fontName Verdana
  fontSize 11
  stereotypeFontColor aaa
  stereotypeFontSize 11
}


skinparam state {
    backgroundColor 2e2e2e
  borderColor 1b1b1b
    fontColor fff
  fontName Verdana
  fontSize 11
  stereotypeFontColor aaa
  stereotypeFontSize 11
    arrowColor fff
  arrowFontName Verdana
  arrowFontColor bbb
  arrowFontSize 11
  startColor 1a66c2
  endColor 002642
}


skinparam object {
    backgroundColor 2e2e2e
  borderColor 1b1b1b
    fontColor fff
  fontName Verdana
  fontSize 11
  stereotypeFontColor aaa
  stereotypeFontSize 11
    arrowColor fff
  arrowFontName Verdana
  arrowFontColor bbb
  arrowFontSize 11
}


skinparam note {
    backgroundColor 1a66c2
  borderColor 002642
    fontColor fff
  fontName Verdana
  fontSize 11
  stereotypeFontColor aaa
  stereotypeFontSize 11
}

skinparam cloud {
    backgroundColor 2e2e2e
  borderColor 1b1b1b
    fontColor fff
  fontName Verdana
  fontSize 11
  stereotypeFontColor aaa
  stereotypeFontSize 11
    arrowColor fff
  arrowFontName Verdana
  arrowFontColor bbb
  arrowFontSize 11
}

skinparam rectangle {
    backgroundColor 2e2e2e
  borderColor 1b1b1b
    fontColor fff
  fontName Verdana
  fontSize 11
  stereotypeFontColor aaa
  stereotypeFontSize 11
}

skinparam storage {
    backgroundColor 2e2e2e
  borderColor 1b1b1b
    fontColor fff
  fontName Verdana
  fontSize 11
  stereotypeFontColor aaa
  stereotypeFontSize 11
}



entity STUDENT{
    id:pk 
    username :  CharField
    first_name :  CharField
    last_name :  CharField
    email :  EmailField
    phone :  CharField
    password :  CharField

}

entity ExtraInfo{
    id:pk
    student_id :  ForeignKey(STUDENT)
    permanent_address :  CharField
    current_address :  CharField
    country  :  CharField
    date_of_birth :  DateField 

}
note left of ExtraInfo :  used for recommendation \n of scholarship (AI)


STUDENT ||..|{ ExtraInfo

entity EmployerDetails{
    id:pk 
    employer_name :  CharField
    employer_address :  CharField
    employer_designation :  CharField
    employer_phone :  CharField
    student_id :  ForeignKey(STUDENT)
}
STUDENT ||..|{ EmployerDetails

note left of EmployerDetails : if applicable

entity SchoolAttended{
    id:pk 
    school_name :  CharField
    school_type :  CharField("primary,secondary,etc")
    final_performance :  CharField
}



entity Commitee{
    id:pk
    commitee_name :  CharField
    chair_email :  EmailField
}

entity CommiteeMember{
    id:pk 
    first_name :  CharField
    last_name :  CharField
    phone_no :  CharField
    department_name :  CharField
    password :  CharField
    commitee_id :  ForeignKey(Commitee)
}

Commitee ||..|{ CommiteeMember

entity Scholarship{
    id:pk 
    scholarship_name :  CharField
    school_name :  CharField
    deadline_apply :  DateTimeField
    deadline_review :  DateTimeField
    scholarship_details :  TextField 
    web_link :  CharField
    scholarship_budget : CharField
    scholarship_type : ("full","part")
    scholarship_country :  CharField
    commitee_id :  ForeignKey(Commitee)


}

Commitee ||..|{ Scholarship

entity Application{
    id:pk
    scholarship_id :  ForeignKey(Scholarship)
    student_id :  ForeignKey(CharField)
    school_id :  ForeignKey(SchoolAttended)
    resume_letter :  FileField
    extra_notes_resume : CharField
    recommendation_letter :  FileField
    etra_notes_rec_letter :  CharField

    

}

STUDENT||..|{ Application
SchoolAttended||..|{ Application
Scholarship ||..|{ Application

entity Feedback{
    id:pk
    commitee_id : ForeignKey(Commitee)
    application_id :  ForeignKey(Application)
    application_status :  Boolean("accepted","rejected")
    application_etra_notes :  CharField

    

}

Application||..|{ Feedback
Commitee||..|{ Feedback

entity Response{
    id:pk
    feedback_id : ForeignKey(Feedback)
    response_text :  CharField

}

Feedback||..|{ Response




@enduml

PlantUML version 1.2021.7(Sun May 23 15:40:07 EAT 2021)
(GPL source distribution)
Java Runtime: OpenJDK Runtime Environment
JVM: OpenJDK 64-Bit Server VM
Default Encoding: UTF-8
Language: en
Country: US
--></g></svg>