<?xml version="1.0" encoding="UTF-8" standalone="no"?><svg xmlns="http://www.w3.org/2000/svg" xmlns:xlink="http://www.w3.org/1999/xlink" contentScriptType="application/ecmascript" contentStyleType="text/css" height="588px" preserveAspectRatio="none" style="width:3272px;height:588px;background:#777777;" version="1.1" viewBox="0 0 3272 588" width="3272px" zoomAndPan="magnify"><defs><filter height="300%" id="f9k6dulpgdi41" width="300%" x="-1" y="-1"><feGaussianBlur result="blurOut" stdDeviation="2.0"/><feColorMatrix in="blurOut" result="blurOut2" type="matrix" values="0 0 0 0 0 0 0 0 0 0 0 0 0 0 0 0 0 0 .4 0"/><feOffset dx="4.0" dy="4.0" in="blurOut2" result="blurOut3"/><feBlend in="SourceGraphic" in2="blurOut3" mode="normal"/></filter></defs><g><!--MD5=[e1532afab819f384a6963ac657a68e1b]
entity au--><ellipse cx="1082" cy="28.5" fill="#1A66C2" filter="url(#f9k6dulpgdi41)" rx="8" ry="8" style="stroke:#002642;stroke-width:1.5;"/><text fill="#FFFFFF" font-family="Verdana" font-size="11" lengthAdjust="spacing" textLength="25" x="1069.5" y="55.7104">Auth</text><!--MD5=[e8586ec783828e7ddd1a1a3b19fc3380]
entity HomePage--><rect fill="#2E2E2E" filter="url(#f9k6dulpgdi41)" height="42.8047" style="stroke:#1B1B1B;stroke-width:1.5;" width="101" x="1126.5" y="7"/><rect fill="#2E2E2E" height="10" style="stroke:#1B1B1B;stroke-width:1.5;" width="15" x="1207.5" y="12"/><rect fill="#2E2E2E" height="2" style="stroke:#1B1B1B;stroke-width:1.5;" width="4" x="1205.5" y="14"/><rect fill="#2E2E2E" height="2" style="stroke:#1B1B1B;stroke-width:1.5;" width="4" x="1205.5" y="18"/><text fill="#FFFFFF" font-family="Verdana" font-size="11" lengthAdjust="spacing" textLength="61" x="1141.5" y="37.2104">HomePage</text><!--MD5=[39222abbbfd087a4fdab60e627dc976f]
entity Auth--><rect fill="#2E2E2E" filter="url(#f9k6dulpgdi41)" height="42.8047" style="stroke:#1B1B1B;stroke-width:1.5;" width="65" x="1609.5" y="144.5"/><rect fill="#2E2E2E" height="10" style="stroke:#1B1B1B;stroke-width:1.5;" width="15" x="1654.5" y="149.5"/><rect fill="#2E2E2E" height="2" style="stroke:#1B1B1B;stroke-width:1.5;" width="4" x="1652.5" y="151.5"/><rect fill="#2E2E2E" height="2" style="stroke:#1B1B1B;stroke-width:1.5;" width="4" x="1652.5" y="155.5"/><text fill="#FFFFFF" font-family="Verdana" font-size="11" lengthAdjust="spacing" textLength="25" x="1624.5" y="174.7104">Auth</text><!--MD5=[7d20628726b32ce27ff16711d07874fa]
entity SignIN--><ellipse cx="1695" cy="351" fill="#1A66C2" filter="url(#f9k6dulpgdi41)" rx="8" ry="8" style="stroke:#002642;stroke-width:1.5;"/><text fill="#FFFFFF" font-family="Verdana" font-size="11" lengthAdjust="spacing" textLength="36" x="1677" y="378.2104">SignIN</text><!--MD5=[9ec6572d736dc4c745b46819be55ba85]
entity Register--><ellipse cx="1642" cy="351" fill="#1A66C2" filter="url(#f9k6dulpgdi41)" rx="8" ry="8" style="stroke:#002642;stroke-width:1.5;"/><text fill="#FFFFFF" font-family="Verdana" font-size="11" lengthAdjust="spacing" textLength="47" x="1618.5" y="378.2104">Register</text><!--MD5=[caeed11f054f91550268fc31427cd3b9]
entity HomeP--><ellipse cx="1177" cy="166" fill="#1A66C2" filter="url(#f9k6dulpgdi41)" rx="8" ry="8" style="stroke:#002642;stroke-width:1.5;"/><text fill="#FFFFFF" font-family="Verdana" font-size="11" lengthAdjust="spacing" textLength="40" x="1157" y="193.2104">HomeP</text><!--MD5=[530cb5e6f851788f4332a87b16651887]
entity DetailedPage--><rect fill="#2E2E2E" filter="url(#f9k6dulpgdi41)" height="42.8047" style="stroke:#1B1B1B;stroke-width:1.5;" width="114" x="2006" y="144.5"/><rect fill="#2E2E2E" height="10" style="stroke:#1B1B1B;stroke-width:1.5;" width="15" x="2100" y="149.5"/><rect fill="#2E2E2E" height="2" style="stroke:#1B1B1B;stroke-width:1.5;" width="4" x="2098" y="151.5"/><rect fill="#2E2E2E" height="2" style="stroke:#1B1B1B;stroke-width:1.5;" width="4" x="2098" y="155.5"/><text fill="#FFFFFF" font-family="Verdana" font-size="11" lengthAdjust="spacing" textLength="74" x="2021" y="174.7104">DetailedPage</text><!--MD5=[d2d4f5b2344a5a4884369c3b874fbdb6]
entity DetailedP--><ellipse cx="2063" cy="351" fill="#1A66C2" filter="url(#f9k6dulpgdi41)" rx="8" ry="8" style="stroke:#002642;stroke-width:1.5;"/><text fill="#FFFFFF" font-family="Verdana" font-size="11" lengthAdjust="spacing" textLength="53" x="2036.5" y="378.2104">DetailedP</text><!--MD5=[5e59787e18dcc7ceadd11c9b43f5dbe5]
entity BookNoe--><rect fill="#2E2E2E" filter="url(#f9k6dulpgdi41)" height="42.8047" style="stroke:#1B1B1B;stroke-width:1.5;" width="90" x="3168" y="144.5"/><rect fill="#2E2E2E" height="10" style="stroke:#1B1B1B;stroke-width:1.5;" width="15" x="3238" y="149.5"/><rect fill="#2E2E2E" height="2" style="stroke:#1B1B1B;stroke-width:1.5;" width="4" x="3236" y="151.5"/><rect fill="#2E2E2E" height="2" style="stroke:#1B1B1B;stroke-width:1.5;" width="4" x="3236" y="155.5"/><text fill="#FFFFFF" font-family="Verdana" font-size="11" lengthAdjust="spacing" textLength="50" x="3183" y="174.7104">BookNoe</text><!--MD5=[3ac9411475421db088c4702fcbe0ea46]
entity BookNowp--><ellipse cx="3213" cy="351" fill="#1A66C2" filter="url(#f9k6dulpgdi41)" rx="8" ry="8" style="stroke:#002642;stroke-width:1.5;"/><text fill="#FFFFFF" font-family="Verdana" font-size="11" lengthAdjust="spacing" textLength="59" x="3183.5" y="378.2104">BookNowp</text><!--MD5=[d5e4ed37d3d805223588667ce52552cc]
entity SearchResult--><rect fill="#2E2E2E" filter="url(#f9k6dulpgdi41)" height="42.8047" style="stroke:#1B1B1B;stroke-width:1.5;" width="115" x="853.5" y="144.5"/><rect fill="#2E2E2E" height="10" style="stroke:#1B1B1B;stroke-width:1.5;" width="15" x="948.5" y="149.5"/><rect fill="#2E2E2E" height="2" style="stroke:#1B1B1B;stroke-width:1.5;" width="4" x="946.5" y="151.5"/><rect fill="#2E2E2E" height="2" style="stroke:#1B1B1B;stroke-width:1.5;" width="4" x="946.5" y="155.5"/><text fill="#FFFFFF" font-family="Verdana" font-size="11" lengthAdjust="spacing" textLength="75" x="868.5" y="174.7104">SearchResult</text><!--MD5=[11ac7c16a56603989a5373f1c37198b1]
entity SearchP--><ellipse cx="490" cy="351" fill="#1A66C2" filter="url(#f9k6dulpgdi41)" rx="8" ry="8" style="stroke:#002642;stroke-width:1.5;"/><text fill="#FFFFFF" font-family="Verdana" font-size="11" lengthAdjust="spacing" textLength="47" x="466.5" y="378.2104">SearchP</text><!--MD5=[937a8d985e7daebe0d0ea00102483e82]
entity UserDashboard--><rect fill="#2E2E2E" filter="url(#f9k6dulpgdi41)" height="42.8047" style="stroke:#1B1B1B;stroke-width:1.5;" width="129" x="1003.5" y="144.5"/><rect fill="#2E2E2E" height="10" style="stroke:#1B1B1B;stroke-width:1.5;" width="15" x="1112.5" y="149.5"/><rect fill="#2E2E2E" height="2" style="stroke:#1B1B1B;stroke-width:1.5;" width="4" x="1110.5" y="151.5"/><rect fill="#2E2E2E" height="2" style="stroke:#1B1B1B;stroke-width:1.5;" width="4" x="1110.5" y="155.5"/><text fill="#FFFFFF" font-family="Verdana" font-size="11" lengthAdjust="spacing" textLength="89" x="1018.5" y="174.7104">UserDashboard</text><!--MD5=[f51400ddccf36778a74561300d0337cb]
entity UserD--><ellipse cx="966" cy="351" fill="#1A66C2" filter="url(#f9k6dulpgdi41)" rx="8" ry="8" style="stroke:#002642;stroke-width:1.5;"/><text fill="#FFFFFF" font-family="Verdana" font-size="11" lengthAdjust="spacing" textLength="35" x="948.5" y="378.2104">UserD</text><!--MD5=[584d5c024d3491904638fbf57012e19e]
entity FillTripDetails--><rect fill="#2E2E2E" filter="url(#f9k6dulpgdi41)" height="42.8047" style="stroke:#1B1B1B;stroke-width:1.5;" width="116" x="1010" y="329.5"/><rect fill="#2E2E2E" height="10" style="stroke:#1B1B1B;stroke-width:1.5;" width="15" x="1106" y="334.5"/><rect fill="#2E2E2E" height="2" style="stroke:#1B1B1B;stroke-width:1.5;" width="4" x="1104" y="336.5"/><rect fill="#2E2E2E" height="2" style="stroke:#1B1B1B;stroke-width:1.5;" width="4" x="1104" y="340.5"/><text fill="#FFFFFF" font-family="Verdana" font-size="11" lengthAdjust="spacing" textLength="76" x="1025" y="359.7104">FillTripDetails</text><!--MD5=[63c89e22786cc5ec78e178b1410a29ae]
entity ScheduleP--><ellipse cx="1068" cy="530" fill="#1A66C2" filter="url(#f9k6dulpgdi41)" rx="8" ry="8" style="stroke:#002642;stroke-width:1.5;"/><text fill="#FFFFFF" font-family="Verdana" font-size="11" lengthAdjust="spacing" textLength="59" x="1038.5" y="557.2104">ScheduleP</text><path d="M1161.5,333 L1161.5,368.6094 L1402.5,368.6094 L1402.5,343 L1392.5,333 L1161.5,333 " fill="#1A66C2" filter="url(#f9k6dulpgdi41)" style="stroke:#002642;stroke-width:1.0;"/><path d="M1392.5,333 L1392.5,343 L1402.5,343 L1392.5,333 " fill="#1A66C2" style="stroke:#002642;stroke-width:1.0;"/><text fill="#FFFFFF" font-family="Verdana" font-size="11" lengthAdjust="spacing" textLength="114" x="1167.5" y="348.2104">the student signs in</text><text fill="#FFFFFF" font-family="Verdana" font-size="11" lengthAdjust="spacing" textLength="216" x="1171.5" y="361.0151">by providing username and password</text><path d="M1438,301 L1438,400.6328 A0,0 0 0 0 1438,400.6328 L1598,400.6328 A0,0 0 0 0 1598,400.6328 L1598,355 L1632.8,351 L1598,347 L1598,311 L1588,301 L1438,301 A0,0 0 0 0 1438,301 " fill="#1A66C2" filter="url(#f9k6dulpgdi41)" style="stroke:#002642;stroke-width:1.0;"/><path d="M1588,301 L1588,311 L1598,311 L1588,301 " fill="#1A66C2" style="stroke:#002642;stroke-width:1.0;"/><text fill="#FFFFFF" font-family="Verdana" font-size="11" lengthAdjust="spacing" textLength="121" x="1444" y="316.2104">the student registers</text><text fill="#FFFFFF" font-family="Verdana" font-size="11" lengthAdjust="spacing" textLength="131" x="1448" y="329.0151">by providing username</text><text fill="#FFFFFF" font-family="Verdana" font-size="11" lengthAdjust="spacing" textLength="55" x="1448" y="341.8198">firstname</text><text fill="#FFFFFF" font-family="Verdana" font-size="11" lengthAdjust="spacing" textLength="24" x="1448" y="354.6245">type</text><text fill="#FFFFFF" font-family="Verdana" font-size="11" lengthAdjust="spacing" textLength="31" x="1448" y="367.4292">email</text><text fill="#FFFFFF" font-family="Verdana" font-size="11" lengthAdjust="spacing" textLength="35" x="1448" y="380.2339">phone</text><text fill="#FFFFFF" font-family="Verdana" font-size="11" lengthAdjust="spacing" textLength="56" x="1448" y="393.0386">password</text><path d="M613.5,110 L613.5,222.4375 L818.5,222.4375 L818.5,120 L808.5,110 L613.5,110 " fill="#1A66C2" filter="url(#f9k6dulpgdi41)" style="stroke:#002642;stroke-width:1.0;"/><path d="M808.5,110 L808.5,120 L818.5,120 L808.5,110 " fill="#1A66C2" style="stroke:#002642;stroke-width:1.0;"/><text fill="#FFFFFF" font-family="Verdana" font-size="11" lengthAdjust="spacing" textLength="152" x="619.5" y="125.2104">when customer opens app</text><text fill="#FFFFFF" font-family="Verdana" font-size="11" lengthAdjust="spacing" textLength="160" x="623.5" y="138.0151">he will see list of all busses</text><text fill="#FFFFFF" font-family="Verdana" font-size="11" lengthAdjust="spacing" textLength="101" x="623.5" y="150.8198">and their capacity</text><text fill="#FFFFFF" font-family="Verdana" font-size="11" lengthAdjust="spacing" textLength="108" x="623.5" y="163.6245">routs they will take</text><text fill="#FFFFFF" font-family="Verdana" font-size="11" lengthAdjust="spacing" textLength="165" x="623.5" y="176.4292">expected departure time and</text><text fill="#FFFFFF" font-family="Verdana" font-size="11" lengthAdjust="spacing" textLength="65" x="623.5" y="189.2339">arrival time</text><text fill="#FFFFFF" font-family="Verdana" font-size="11" lengthAdjust="spacing" textLength="176" x="623.5" y="202.0386">he cal be able to filter the data</text><text fill="#FFFFFF" font-family="Verdana" font-size="11" lengthAdjust="spacing" textLength="100" x="623.5" y="214.8433">in the all list area</text><path d="M1739.5,282 L1739.5,420.0469 A0,0 0 0 0 1739.5,420.0469 L2018.5,420.0469 A0,0 0 0 0 2018.5,420.0469 L2018.5,355 L2053.68,351 L2018.5,347 L2018.5,292 L2008.5,282 L1739.5,282 A0,0 0 0 0 1739.5,282 " fill="#1A66C2" filter="url(#f9k6dulpgdi41)" style="stroke:#002642;stroke-width:1.0;"/><path d="M2008.5,282 L2008.5,292 L2018.5,292 L2008.5,282 " fill="#1A66C2" style="stroke:#002642;stroke-width:1.0;"/><text fill="#FFFFFF" font-family="Verdana" font-size="11" lengthAdjust="spacing" textLength="217" x="1745.5" y="297.2104">here the customer will see the details</text><text fill="#FFFFFF" font-family="Verdana" font-size="11" lengthAdjust="spacing" textLength="47" x="1749.5" y="310.0151">of a bus</text><text fill="#FFFFFF" font-family="Verdana" font-size="11" lengthAdjust="spacing" textLength="185" x="1749.5" y="322.8198">the details will include the driver</text><text fill="#FFFFFF" font-family="Verdana" font-size="11" lengthAdjust="spacing" textLength="45" x="1749.5" y="335.6245">the rout</text><text fill="#FFFFFF" font-family="Verdana" font-size="11" lengthAdjust="spacing" textLength="126" x="1749.5" y="348.4292">no of seats remaining</text><text fill="#FFFFFF" font-family="Verdana" font-size="11" lengthAdjust="spacing" textLength="85" x="1749.5" y="361.2339">departure time</text><text fill="#FFFFFF" font-family="Verdana" font-size="11" lengthAdjust="spacing" textLength="136" x="1749.5" y="374.0386">expected arival time etc</text><text fill="#FFFFFF" font-family="Verdana" font-size="11" lengthAdjust="spacing" textLength="250" x="1749.5" y="386.8433">also it will contain a book now button where</text><text fill="#FFFFFF" font-family="Verdana" font-size="11" lengthAdjust="spacing" textLength="220" x="1749.5" y="399.6479">the user can book the mololine shattle</text><text fill="#FFFFFF" font-family="Verdana" font-size="11" lengthAdjust="spacing" textLength="0" x="1749.5" y="412.4526"/><path d="M2107,295 L2107,407.4375 A0,0 0 0 0 2107,407.4375 L3169,407.4375 A0,0 0 0 0 3169,407.4375 L3169,355 L3203.76,351 L3169,347 L3169,305 L3159,295 L2107,295 A0,0 0 0 0 2107,295 " fill="#1A66C2" filter="url(#f9k6dulpgdi41)" style="stroke:#002642;stroke-width:1.0;"/><path d="M3159,295 L3159,305 L3169,305 L3159,295 " fill="#1A66C2" style="stroke:#002642;stroke-width:1.0;"/><text fill="#FFFFFF" font-family="Verdana" font-size="11" lengthAdjust="spacing" textLength="169" x="2113" y="310.2104">when users press this button</text><text fill="#FFFFFF" font-family="Verdana" font-size="11" lengthAdjust="spacing" textLength="191" x="2117" y="323.0151">if the user is not signed in he will</text><text fill="#FFFFFF" font-family="Verdana" font-size="11" lengthAdjust="spacing" textLength="225" x="2117" y="335.8198">be required to either sign in or register</text><text fill="#FFFFFF" font-family="Verdana" font-size="11" lengthAdjust="spacing" textLength="136" x="2117" y="348.6245">if the user is registered</text><text fill="#FFFFFF" font-family="Verdana" font-size="11" lengthAdjust="spacing" textLength="242" x="2117" y="361.4292">he will see a form in which he needs to fill</text><text fill="#FFFFFF" font-family="Verdana" font-size="11" lengthAdjust="spacing" textLength="549" x="2117" y="374.2339">the form will contain details such as number of seats booked /n which when she adds and save</text><text fill="#FFFFFF" font-family="Verdana" font-size="11" lengthAdjust="spacing" textLength="1033" x="2117" y="387.0386">they will be taken to the another form which will contain the payment button where they will pay for the service and it will be updated n to the database then they will see a bar code</text><text fill="#FFFFFF" font-family="Verdana" font-size="11" lengthAdjust="spacing" textLength="270" x="2117" y="399.8433">which they can download and take for scanning</text><path d="M6,314 L6,388.0234 A0,0 0 0 0 6,388.0234 L446,388.0234 A0,0 0 0 0 446,388.0234 L446,355 L480.76,351 L446,347 L446,324 L436,314 L6,314 A0,0 0 0 0 6,314 " fill="#1A66C2" filter="url(#f9k6dulpgdi41)" style="stroke:#002642;stroke-width:1.0;"/><path d="M436,314 L436,324 L446,324 L436,314 " fill="#1A66C2" style="stroke:#002642;stroke-width:1.0;"/><text fill="#FFFFFF" font-family="Verdana" font-size="11" lengthAdjust="spacing" textLength="292" x="12" y="329.2104">The search button will be present in the homepage</text><text fill="#FFFFFF" font-family="Verdana" font-size="11" lengthAdjust="spacing" textLength="307" x="16" y="342.0151">the user willl be taken to the search page result page</text><text fill="#FFFFFF" font-family="Verdana" font-size="11" lengthAdjust="spacing" textLength="210" x="16" y="354.8198">the user searches based on location</text><text fill="#FFFFFF" font-family="Verdana" font-size="11" lengthAdjust="spacing" textLength="314" x="16" y="367.6245">the search page will contain a listview of various cards</text><text fill="#FFFFFF" font-family="Verdana" font-size="11" lengthAdjust="spacing" textLength="415" x="16" y="380.4292">which contain info for various busses of that route searched by the user</text><path d="M534,320.5 L534,381.7188 A0,0 0 0 0 534,381.7188 L922,381.7188 A0,0 0 0 0 922,381.7188 L922,355 L956.78,351 L922,347 L922,330.5 L912,320.5 L534,320.5 A0,0 0 0 0 534,320.5 " fill="#1A66C2" filter="url(#f9k6dulpgdi41)" style="stroke:#002642;stroke-width:1.0;"/><path d="M912,320.5 L912,330.5 L922,330.5 L912,320.5 " fill="#1A66C2" style="stroke:#002642;stroke-width:1.0;"/><text fill="#FFFFFF" font-family="Verdana" font-size="11" lengthAdjust="spacing" textLength="276" x="540" y="335.7104">this will show show the various info for the user</text><text fill="#FFFFFF" font-family="Verdana" font-size="11" lengthAdjust="spacing" textLength="203" x="544" y="348.5151">that is his/her personal information</text><text fill="#FFFFFF" font-family="Verdana" font-size="11" lengthAdjust="spacing" textLength="359" x="544" y="361.3198">the driver will see all the rides for the day that he has to make</text><text fill="#FFFFFF" font-family="Verdana" font-size="11" lengthAdjust="spacing" textLength="13" x="544" y="374.1245">all</text><path d="M734,480 L734,579.6328 A0,0 0 0 0 734,579.6328 L1024,579.6328 A0,0 0 0 0 1024,579.6328 L1024,534 L1058.73,530 L1024,526 L1024,490 L1014,480 L734,480 A0,0 0 0 0 734,480 " fill="#1A66C2" filter="url(#f9k6dulpgdi41)" style="stroke:#002642;stroke-width:1.0;"/><path d="M1014,480 L1014,490 L1024,490 L1014,480 " fill="#1A66C2" style="stroke:#002642;stroke-width:1.0;"/><text fill="#FFFFFF" font-family="Verdana" font-size="11" lengthAdjust="spacing" textLength="265" x="740" y="495.2104">this page will help the driver to fill various info</text><text fill="#FFFFFF" font-family="Verdana" font-size="11" lengthAdjust="spacing" textLength="253" x="744" y="508.0151">of trip routes that will be  used by the driver</text><text fill="#FFFFFF" font-family="Verdana" font-size="11" lengthAdjust="spacing" textLength="162" x="744" y="520.8198">the information filled include</text><text fill="#FFFFFF" font-family="Verdana" font-size="11" lengthAdjust="spacing" textLength="85" x="744" y="533.6245">the destination</text><text fill="#FFFFFF" font-family="Verdana" font-size="11" lengthAdjust="spacing" textLength="25" x="744" y="546.4292">time</text><text fill="#FFFFFF" font-family="Verdana" font-size="11" lengthAdjust="spacing" textLength="65" x="744" y="559.2339">arrival time</text><text fill="#FFFFFF" font-family="Verdana" font-size="11" lengthAdjust="spacing" textLength="154" x="744" y="572.0386">destination place name etc</text><!--MD5=[2aea3b9ca06a37a0a4652c3da162b212]
link au to HomePage--><path d="M1091.28,28.5 C1103,28.5 1114.72,28.5 1126.44,28.5 " fill="none" id="au-HomePage" style="stroke:#FFFFFF;stroke-width:1.0;"/><!--MD5=[a7fc1496ddfd0de3f99ca57e2bd07078]
link Auth to SignIN--><path d="M1647.98,187.64 C1658.98,225.63 1682.15,305.64 1691.23,337 " fill="none" id="Auth-to-SignIN" style="stroke:#FFFFFF;stroke-width:1.0;stroke-dasharray:7.0,7.0;"/><polygon fill="#FFFFFF" points="1692.66,341.93,1693.98,332.17,1691.26,337.13,1686.3,334.41,1692.66,341.93" style="stroke:#FFFFFF;stroke-width:1.0;"/><!--MD5=[9fd26f0117ebdcb8066735da0ed41387]
link Auth to Register--><path d="M1642,187.64 C1642,225.48 1642,304.97 1642,336.6 " fill="none" id="Auth-to-Register" style="stroke:#FFFFFF;stroke-width:1.0;stroke-dasharray:7.0,7.0;"/><polygon fill="#FFFFFF" points="1642,341.93,1646,332.93,1642,336.93,1638,332.93,1642,341.93" style="stroke:#FFFFFF;stroke-width:1.0;"/><!--MD5=[52fd323a52174b0c8350fdfe8ee22726]
link HomePage to HomeP--><path d="M1177,50.08 C1177,78.18 1177,127.78 1177,151.55 " fill="none" id="HomePage-to-HomeP" style="stroke:#FFFFFF;stroke-width:1.0;stroke-dasharray:7.0,7.0;"/><polygon fill="#FFFFFF" points="1177,156.75,1181,147.75,1177,151.75,1173,147.75,1177,156.75" style="stroke:#FFFFFF;stroke-width:1.0;"/><!--MD5=[771c329a107b101ff5830fe2276dde07]
link HomePage to Auth--><path d="M1227.65,44.26 C1321.69,71.66 1521.28,129.82 1604.42,154.05 " fill="none" id="HomePage-to-Auth" style="stroke:#FFFFFF;stroke-width:1.0;stroke-dasharray:7.0,7.0;"/><polygon fill="#FFFFFF" points="1609.25,155.46,1601.73,149.1,1604.45,154.06,1599.49,156.78,1609.25,155.46" style="stroke:#FFFFFF;stroke-width:1.0;"/><!--MD5=[7e6614ba6e7f7ca192fc2a39ab9af52d]
link DetailedPage to DetailedP--><path d="M2063,187.64 C2063,225.48 2063,304.97 2063,336.6 " fill="none" id="DetailedPage-to-DetailedP" style="stroke:#FFFFFF;stroke-width:1.0;stroke-dasharray:7.0,7.0;"/><polygon fill="#FFFFFF" points="2063,341.93,2067,332.93,2063,336.93,2059,332.93,2063,341.93" style="stroke:#FFFFFF;stroke-width:1.0;"/><!--MD5=[fdb822d409ec064e8e9ecf5be35bdf6c]
link HomePage to DetailedPage--><path d="M1227.82,37.27 C1380.32,60.59 1833.79,129.95 2000.55,155.45 " fill="none" id="HomePage-to-DetailedPage" style="stroke:#FFFFFF;stroke-width:1.0;stroke-dasharray:7.0,7.0;"/><polygon fill="#FFFFFF" points="2005.88,156.27,1997.5894,150.9534,2000.9376,155.5129,1996.3781,158.8612,2005.88,156.27" style="stroke:#FFFFFF;stroke-width:1.0;"/><!--MD5=[83e070ce87bd052621362ae275f19b0b]
link BookNoe to BookNowp--><path d="M3213,187.64 C3213,225.48 3213,304.97 3213,336.6 " fill="none" id="BookNoe-to-BookNowp" style="stroke:#FFFFFF;stroke-width:1.0;stroke-dasharray:7.0,7.0;"/><polygon fill="#FFFFFF" points="3213,341.93,3217,332.93,3213,336.93,3209,332.93,3213,341.93" style="stroke:#FFFFFF;stroke-width:1.0;"/><!--MD5=[e9acfcf37c3d6be0d1e09fa22bb02265]
link DetailedPage to BookNowp--><path d="M2120.19,169.37 C2337.17,178.83 3101.6,216.57 3187,282 C3203.98,295.01 3209.87,320.53 3211.92,336.34 " fill="none" id="DetailedPage-to-BookNowp" style="stroke:#FFFFFF;stroke-width:1.0;stroke-dasharray:7.0,7.0;"/><polygon fill="#FFFFFF" points="3212.51,341.68,3215.4828,332.2905,3211.9531,336.7111,3207.5325,333.1815,3212.51,341.68" style="stroke:#FFFFFF;stroke-width:1.0;"/><!--MD5=[2ecc45f08d3ccc7400f2a6525aa95c52]
link SearchResult to SearchP--><path d="M888.7,187.51 C874.59,199.38 855.4,213.58 836,222 C703.65,279.42 628.32,190.24 517,282 C500.41,295.67 493.96,320.98 491.49,336.57 " fill="none" id="SearchResult-to-SearchP" style="stroke:#FFFFFF;stroke-width:1.0;stroke-dasharray:7.0,7.0;"/><polygon fill="#FFFFFF" points="490.75,341.83,495.9691,333.4777,491.4491,336.8791,488.0477,332.3591,490.75,341.83" style="stroke:#FFFFFF;stroke-width:1.0;"/><!--MD5=[fc8ff836aa5e0d569c624c513cd5cd65]
link UserDashboard to UserD--><path d="M1052.57,187.84 C1036.39,210.31 1010.87,247.5 993,282 C983.51,300.32 975.19,322.77 970.38,336.73 " fill="none" id="UserDashboard-to-UserD" style="stroke:#FFFFFF;stroke-width:1.0;stroke-dasharray:7.0,7.0;"/><polygon fill="#FFFFFF" points="968.65,341.81,975.3236,334.5669,970.2526,337.0738,967.7457,332.0027,968.65,341.81" style="stroke:#FFFFFF;stroke-width:1.0;"/><!--MD5=[8b69012ac73a5f733954abe2b0202266]
link HomePage to SearchResult--><path d="M1126.42,47.11 C1087.02,61.7 1031.55,84.18 986,110 C970.09,119.02 953.57,130.83 940.1,141.19 " fill="none" id="HomePage-to-SearchResult" style="stroke:#FFFFFF;stroke-width:1.0;stroke-dasharray:7.0,7.0;"/><polygon fill="#FFFFFF" points="936.03,144.35,945.5881,141.9748,939.9745,141.2773,940.6719,135.6636,936.03,144.35" style="stroke:#FFFFFF;stroke-width:1.0;"/><!--MD5=[9eca0ce4a7a7c9350f51bcb4c6ff33d8]
link HomePage to UserDashboard--><path d="M1160.45,50.08 C1141,74.25 1108.76,114.34 1087.95,140.2 " fill="none" id="HomePage-to-UserDashboard" style="stroke:#FFFFFF;stroke-width:1.0;stroke-dasharray:7.0,7.0;"/><polygon fill="#FFFFFF" points="1084.71,144.23,1093.4718,139.7322,1087.8474,140.3368,1087.2427,134.7124,1084.71,144.23" style="stroke:#FFFFFF;stroke-width:1.0;"/><!--MD5=[8ab31870a1ebe2b7669df526541a18e8]
link FillTripDetails to ScheduleP--><path d="M1068,372.65 C1068,409.39 1068,485.13 1068,515.74 " fill="none" id="FillTripDetails-to-ScheduleP" style="stroke:#FFFFFF;stroke-width:1.0;stroke-dasharray:7.0,7.0;"/><polygon fill="#FFFFFF" points="1068,520.91,1072,511.91,1068,515.91,1064,511.91,1068,520.91" style="stroke:#FFFFFF;stroke-width:1.0;"/><!--MD5=[2e24992ab97245d59337c17d83b97773]
link UserDashboard to FillTripDetails--><path d="M1068,187.64 C1068,221.22 1068,287.64 1068,324.26 " fill="none" id="UserDashboard-to-FillTripDetails" style="stroke:#FFFFFF;stroke-width:1.0;stroke-dasharray:7.0,7.0;"/><polygon fill="#FFFFFF" points="1068,329.44,1072,320.44,1068,324.44,1064,320.44,1068,329.44" style="stroke:#FFFFFF;stroke-width:1.0;"/><!--MD5=[b97c602ee53b2335edd905d7f733e4be]
link GMN34 to SignIN--><path d="M1302.38,332.65 C1330.56,308.63 1384.15,267.75 1438.5,252 C1529.43,225.65 1569.41,204.85 1651.5,252 C1684.22,270.79 1692.38,321.11 1694.37,341.86 " fill="none" id="GMN34-SignIN" style="stroke:#FFFFFF;stroke-width:1.0;stroke-dasharray:7.0,7.0;"/><!--MD5=[a8929b02415aa1fddd9e0c722b28b1d6]
link GMN40 to HomeP--><path d="M789.1,109.87 C808.96,97.62 831.17,86.41 853.5,80 C913.09,62.9 1078.74,49.12 1132.5,80 C1161.07,96.41 1171.98,138.1 1175.52,156.75 " fill="none" id="GMN40-HomeP" style="stroke:#FFFFFF;stroke-width:1.0;stroke-dasharray:7.0,7.0;"/><!--MD5=[ef1139586f6a70fe0c770056f136d1ff]
@startuml driver_logic
!define DARKBLUE
!includeurl https://raw.githubusercontent.com/Drakemor/RedDress-PlantUML/master/style.puml


interface "Auth" as  au
au - [HomePage]
[Auth] ..> SignIN 
[Auth] ..> Register 
[HomePage]..>HomeP
[HomePage]..>[Auth]
[DetailedPage] ..> DetailedP 
[HomePage] ..> [DetailedPage]
[BookNoe] ..>BookNowp 
[DetailedPage] ..> BookNowp
[SearchResult] ..>SearchP
[UserDashboard] ..> UserD
[HomePage] ..> [SearchResult]
[HomePage] ..>  [UserDashboard]
[FillTripDetails] ..> ScheduleP
[UserDashboard] ..> [FillTripDetails]



note left of SignIN : the student signs in \n by providing username and password 
note left of Register : the student registers \n by providing username \n firstname \n type \n email \n phone \n password 
note left of HomeP : when customer opens app \n he will see list of all busses \n and their capacity \n routs they will take \n expected departure time and \n arrival time \n he cal be able to filter the data \n in the all list area
note left of DetailedP : here the customer will see the details \n of a bus \n the details will include the driver \n the rout \n no of seats remaining \n departure time \n expected arival time etc\n also it will contain a book now button where \n the user can book the mololine shattle \n
note left of BookNowp : when users press this button \n if the user is not signed in he will \n be required to either sign in or register \n if the user is registered \n he will see a form in which he needs to fill \n the form will contain details such as number of seats booked /n which when she adds and save \n they will be taken to the another form which will contain the payment button where they will pay for the service and it will be updated \ n to the database then they will see a bar code \n which they can download and take for scanning
note left of SearchP :  The search button will be present in the homepage \n the user willl be taken to the search page result page \n the user searches based on location \n the search page will contain a listview of various cards \n which contain info for various busses of that route searched by the user
note left of UserD : this will show show the various info for the user \n that is his/her personal information \n the driver will see all the rides for the day that he has to make \n all  
note left of ScheduleP :  this page will help the driver to fill various info \n of trip routes that will be  used by the driver \n the information filled include  \n the destination \n time \n arrival time \n destination place name etc 



@enduml

@startuml driver_logic



skinparam backgroundColor 777
skinparam stereotypeCBackgroundColor 1a66c2









skinparam backgroundColor 777







skinparam circledCharacter {
  radius 8
  fontSize 11
  fontName Verdana
}

skinparam class {
    backgroundColor 2e2e2e
  borderColor 1b1b1b
    fontColor fff
  fontName Verdana
  fontSize 11
  stereotypeFontColor aaa
  stereotypeFontSize 11
    arrowColor fff
  arrowFontName Verdana
  arrowFontColor bbb
  arrowFontSize 11

  attributeFontColor aaa
  attributeFontSize 11
  attributeIconSize 11
}


skinparam actor {
    backgroundColor 1a66c2
  borderColor 002642
    fontColor fff
  fontName Verdana
  fontSize 11
  stereotypeFontColor aaa
  stereotypeFontSize 11
}

skinparam participant {
    backgroundColor 2e2e2e
  borderColor 1b1b1b
    fontColor fff
  fontName Verdana
  fontSize 11
  stereotypeFontColor aaa
  stereotypeFontSize 11
}

skinparam collections {
    backgroundColor 2e2e2e
  borderColor 1b1b1b
    fontColor fff
  fontName Verdana
  fontSize 11
  stereotypeFontColor aaa
  stereotypeFontSize 11
}

skinparam SequenceBox{
    backgroundColor 575757
  borderColor 767676
    fontColor fff
  fontName Verdana
  fontSize 11
  stereotypeFontColor aaa
  stereotypeFontSize 11
}


skinparam interface {
    backgroundColor 1a66c2
  borderColor 002642
    fontColor fff
  fontName Verdana
  fontSize 11
  stereotypeFontColor aaa
  stereotypeFontSize 11
}

skinparam component {
    backgroundColor 2e2e2e
  borderColor 1b1b1b
    fontColor fff
  fontName Verdana
  fontSize 11
  stereotypeFontColor aaa
  stereotypeFontSize 11
}

skinparam node {
    backgroundColor 2e2e2e
  borderColor 1b1b1b
    fontColor fff
  fontName Verdana
  fontSize 11
  stereotypeFontColor aaa
  stereotypeFontSize 11
}

skinparam database {
    backgroundColor 2e2e2e
  borderColor 1b1b1b
    fontColor fff
  fontName Verdana
  fontSize 11
  stereotypeFontColor aaa
  stereotypeFontSize 11
}

skinparam queue {
    backgroundColor 2e2e2e
  borderColor 1b1b1b
    fontColor fff
  fontName Verdana
  fontSize 11
  stereotypeFontColor aaa
  stereotypeFontSize 11
}


skinparam usecase {
    backgroundColor 2e2e2e
  borderColor 1b1b1b
    fontColor fff
  fontName Verdana
  fontSize 11
  stereotypeFontColor aaa
  stereotypeFontSize 11
    arrowColor fff
  arrowFontName Verdana
  arrowFontColor bbb
  arrowFontSize 11
}

skinparam activity {
    backgroundColor 2e2e2e
  borderColor 1b1b1b
    fontColor fff
  fontName Verdana
  fontSize 11
  stereotypeFontColor aaa
  stereotypeFontSize 11
    arrowColor fff
  arrowFontName Verdana
  arrowFontColor bbb
  arrowFontSize 11
}

skinparam sequence {
    fontColor fff
  fontName Verdana
  fontSize 11
  stereotypeFontColor aaa
  stereotypeFontSize 11
    arrowColor fff
  arrowFontName Verdana
  arrowFontColor bbb
  arrowFontSize 11

  lifeLineBorderColor 1a66c2
  lifeLineBackgroundColor 575757
}

skinparam boundary {
    backgroundColor 1a66c2
  borderColor 002642
    fontColor fff
  fontName Verdana
  fontSize 11
  stereotypeFontColor aaa
  stereotypeFontSize 11
}

skinparam control {
    backgroundColor 1a66c2
  borderColor 002642
    fontColor fff
  fontName Verdana
  fontSize 11
  stereotypeFontColor aaa
  stereotypeFontSize 11
}

skinparam entity {
    backgroundColor 1a66c2
  borderColor 002642
    fontColor fff
  fontName Verdana
  fontSize 11
  stereotypeFontColor aaa
  stereotypeFontSize 11
}


skinparam state {
    backgroundColor 2e2e2e
  borderColor 1b1b1b
    fontColor fff
  fontName Verdana
  fontSize 11
  stereotypeFontColor aaa
  stereotypeFontSize 11
    arrowColor fff
  arrowFontName Verdana
  arrowFontColor bbb
  arrowFontSize 11
  startColor 1a66c2
  endColor 002642
}


skinparam object {
    backgroundColor 2e2e2e
  borderColor 1b1b1b
    fontColor fff
  fontName Verdana
  fontSize 11
  stereotypeFontColor aaa
  stereotypeFontSize 11
    arrowColor fff
  arrowFontName Verdana
  arrowFontColor bbb
  arrowFontSize 11
}


skinparam note {
    backgroundColor 1a66c2
  borderColor 002642
    fontColor fff
  fontName Verdana
  fontSize 11
  stereotypeFontColor aaa
  stereotypeFontSize 11
}

skinparam cloud {
    backgroundColor 2e2e2e
  borderColor 1b1b1b
    fontColor fff
  fontName Verdana
  fontSize 11
  stereotypeFontColor aaa
  stereotypeFontSize 11
    arrowColor fff
  arrowFontName Verdana
  arrowFontColor bbb
  arrowFontSize 11
}

skinparam rectangle {
    backgroundColor 2e2e2e
  borderColor 1b1b1b
    fontColor fff
  fontName Verdana
  fontSize 11
  stereotypeFontColor aaa
  stereotypeFontSize 11
}

skinparam storage {
    backgroundColor 2e2e2e
  borderColor 1b1b1b
    fontColor fff
  fontName Verdana
  fontSize 11
  stereotypeFontColor aaa
  stereotypeFontSize 11
}



interface "Auth" as  au
au - [HomePage]
[Auth] ..> SignIN 
[Auth] ..> Register 
[HomePage]..>HomeP
[HomePage]..>[Auth]
[DetailedPage] ..> DetailedP 
[HomePage] ..> [DetailedPage]
[BookNoe] ..>BookNowp 
[DetailedPage] ..> BookNowp
[SearchResult] ..>SearchP
[UserDashboard] ..> UserD
[HomePage] ..> [SearchResult]
[HomePage] ..>  [UserDashboard]
[FillTripDetails] ..> ScheduleP
[UserDashboard] ..> [FillTripDetails]



note left of SignIN : the student signs in \n by providing username and password 
note left of Register : the student registers \n by providing username \n firstname \n type \n email \n phone \n password 
note left of HomeP : when customer opens app \n he will see list of all busses \n and their capacity \n routs they will take \n expected departure time and \n arrival time \n he cal be able to filter the data \n in the all list area
note left of DetailedP : here the customer will see the details \n of a bus \n the details will include the driver \n the rout \n no of seats remaining \n departure time \n expected arival time etc\n also it will contain a book now button where \n the user can book the mololine shattle \n
note left of BookNowp : when users press this button \n if the user is not signed in he will \n be required to either sign in or register \n if the user is registered \n he will see a form in which he needs to fill \n the form will contain details such as number of seats booked /n which when she adds and save \n they will be taken to the another form which will contain the payment button where they will pay for the service and it will be updated \ n to the database then they will see a bar code \n which they can download and take for scanning
note left of SearchP :  The search button will be present in the homepage \n the user willl be taken to the search page result page \n the user searches based on location \n the search page will contain a listview of various cards \n which contain info for various busses of that route searched by the user
note left of UserD : this will show show the various info for the user \n that is his/her personal information \n the driver will see all the rides for the day that he has to make \n all  
note left of ScheduleP :  this page will help the driver to fill various info \n of trip routes that will be  used by the driver \n the information filled include  \n the destination \n time \n arrival time \n destination place name etc 



@enduml

PlantUML version 1.2021.7(Sun May 23 15:40:07 EAT 2021)
(GPL source distribution)
Java Runtime: OpenJDK Runtime Environment
JVM: OpenJDK 64-Bit Server VM
Default Encoding: UTF-8
Language: en
Country: US
--></g></svg>